<?xml version="1.0" standalone="no"?>
<!DOCTYPE svg PUBLIC "-//W3C//DTD SVG 20010904//EN"
 "http://www.w3.org/TR/2001/REC-SVG-20010904/DTD/svg10.dtd">
<svg version="1.0" xmlns="http://www.w3.org/2000/svg"
 width="500.000000pt" height="333.000000pt" viewBox="0 0 500.000000 333.000000"
 preserveAspectRatio="xMidYMid meet">

<g transform="translate(0.000000,333.000000) scale(0.100000,-0.100000)"
fill="#000000" stroke="none">
<path d="M0 2955 l0 -374 63 -4 62 -3 -62 -2 c-50 -2 -63 -5 -63 -18 0 -14 9
-15 63 -9 34 4 64 11 67 15 3 4 25 9 50 11 44 4 45 3 42 -23 -3 -32 -10 -30
172 -57 70 -11 130 -21 131 -23 2 -2 -64 -1 -146 1 l-149 3 -1 -33 -1 -34 -7
29 c-6 30 -35 48 -60 38 -9 -4 -12 -1 -7 7 13 20 -69 -32 -113 -71 -67 -61
-62 -74 83 -214 68 -65 141 -132 162 -149 20 -16 47 -39 58 -51 90 -88 282
-246 307 -251 16 -3 26 -9 23 -14 -9 -15 -54 -10 -60 6 -4 9 -61 59 -128 112
-66 53 -143 114 -170 136 l-49 41 -18 -23 c-10 -12 -28 -35 -40 -49 -20 -26
-20 -26 -7 -2 8 14 22 36 30 50 15 24 15 26 -31 69 -25 24 -80 67 -121 97
l-75 53 -3 -1106 c-1 -608 -1 -1108 1 -1110 2 -2 885 -2 1963 -1 l1959 3 -190
145 c-105 80 -218 166 -253 190 -35 25 -84 62 -110 83 -26 21 -64 47 -85 58
-35 18 -46 44 -25 59 3 3 11 39 17 80 5 41 17 117 26 169 14 78 14 96 3 106
-14 13 -199 53 -282 61 -62 6 -81 17 -98 52 -17 36 -64 39 -61 4 3 -24 -14
-27 -72 -12 -29 7 -29 8 -5 10 14 1 33 2 43 1 22 -3 22 11 0 38 -17 20 -20 20
-47 6 -32 -17 -46 -12 -46 15 0 13 5 17 15 14 8 -4 15 -1 15 6 0 7 7 10 15 6
14 -5 35 20 35 42 0 5 -15 25 -34 44 -19 20 -36 44 -38 54 -3 17 6 20 66 25
39 3 72 11 74 17 2 7 14 12 26 12 24 0 87 41 120 79 23 26 37 26 64 2 12 -10
57 -28 99 -40 226 -62 287 -80 273 -80 -8 0 -44 6 -80 15 -36 8 -103 23 -150
33 -47 11 -93 22 -103 26 -13 6 -16 4 -11 -10 7 -17 6 -17 -19 0 -27 18 -47
13 -47 -10 0 -8 -9 -19 -20 -25 -11 -6 -18 -15 -14 -21 3 -5 0 -16 -6 -24 -10
-11 -2 -25 36 -70 26 -30 50 -55 53 -55 3 0 51 -41 106 -90 66 -60 108 -90
124 -90 18 0 22 -4 16 -17 -10 -24 -33 -150 -45 -248 -6 -44 -13 -97 -16 -117
-5 -33 -4 -38 13 -38 23 0 180 19 208 25 11 3 33 8 48 11 19 5 34 1 47 -11 18
-16 26 -17 74 -6 30 7 66 9 80 5 23 -5 26 -3 26 20 0 31 20 42 49 26 39 -21
20 -70 -28 -70 -56 0 -141 -24 -141 -40 0 -14 41 -71 230 -325 36 -48 74 -100
85 -116 l20 -28 498 -1 497 0 0 1170 c0 1038 -2 1170 -15 1170 -8 0 -23 4 -33
9 -9 5 -48 14 -87 20 -38 6 -87 13 -107 16 -24 4 -38 2 -38 -5 0 -5 -17 -10
-38 -10 -21 0 -42 -4 -47 -8 -20 -18 -98 -33 -138 -27 -23 3 -70 7 -105 9 -34
2 -65 6 -68 9 -3 3 -25 -3 -49 -14 -63 -28 -149 -34 -215 -14 -130 38 -170 30
-170 -34 0 -44 18 -67 74 -96 21 -11 44 -29 50 -40 6 -11 16 -23 21 -28 6 -4
0 -10 -12 -13 -13 -4 -23 -12 -23 -19 0 -8 -17 -19 -37 -26 -21 -6 -50 -20
-65 -30 -14 -11 -33 -19 -41 -19 -17 0 -32 -34 -23 -49 4 -5 -3 -12 -14 -16
-11 -3 -20 -12 -20 -19 0 -22 -62 -59 -107 -64 -49 -5 -93 12 -93 37 0 9 -8
21 -19 28 -10 6 -25 33 -33 60 -19 59 -33 198 -20 189 15 -9 32 18 22 34 -6 8
-10 34 -10 57 0 23 -4 45 -10 48 -5 3 -10 22 -10 41 0 19 -4 33 -9 29 -5 -3
-12 -1 -16 5 -9 15 5 51 16 44 6 -4 9 16 7 52 -3 52 -6 60 -29 71 -50 24 -42
149 9 142 9 -2 31 4 47 13 17 8 53 19 80 23 28 4 52 11 55 16 3 4 39 13 80 20
41 6 91 21 110 33 19 11 39 22 45 23 5 1 27 6 48 12 25 6 63 6 108 -1 73 -11
88 -8 186 39 37 18 35 35 -11 76 -17 15 -38 34 -47 42 -8 8 -43 22 -77 30 -96
25 -149 59 -177 116 -14 26 -25 54 -25 61 0 7 -8 18 -18 24 -10 7 -24 30 -32
53 l-13 41 -1306 -1 c-1282 -1 -1305 -1 -1238 -19 70 -18 94 -30 64 -30 -10 0
-17 -4 -17 -9 0 -14 -43 -1 -59 18 -10 12 -15 13 -18 4 -7 -18 -23 -16 -23 2
0 8 -4 15 -10 15 -5 0 -10 -5 -10 -11 0 -15 -112 0 -126 17 -12 16 -34 19 -34
5 0 -5 7 -14 16 -22 14 -11 10 -15 -30 -26 -25 -8 -46 -17 -46 -21 1 -11 79
-44 106 -44 26 0 37 -12 39 -39 1 -14 -9 -16 -59 -14 -34 1 -68 5 -78 9 -9 4
-29 1 -45 -7 -15 -8 -45 -17 -66 -20 -45 -7 -67 -22 -67 -46 0 -34 -20 -39
-48 -13 -18 16 -42 26 -71 28 -25 3 -52 10 -60 17 -31 25 -104 51 -141 50
l-38 -2 11 34 c8 27 6 44 -7 80 l-18 45 -239 0 -239 0 0 -375z m1477 319 c13
-4 20 -10 18 -14 -3 -5 8 -5 25 0 27 8 30 6 30 -15 0 -19 -4 -22 -22 -18 -80
18 -98 25 -98 38 0 16 12 18 47 9z m148 -52 c-3 -3 -11 0 -18 7 -9 10 -8 11 6
5 10 -3 15 -9 12 -12z m123 -8 c28 1 32 -2 31 -24 0 -23 -1 -23 -9 -5 -5 11
-9 15 -9 9 -1 -6 -11 -10 -23 -9 -13 1 -33 3 -45 4 -16 1 -23 7 -23 21 0 16 4
18 23 11 12 -4 37 -8 55 -7z m59 -36 c-3 -7 -5 -2 -5 12 0 14 2 19 5 13 2 -7
2 -19 0 -25z m43 2 c0 -11 -4 -20 -10 -20 -5 0 -10 9 -10 20 0 11 5 20 10 20
6 0 10 -9 10 -20z m40 -16 c0 -8 -4 -14 -10 -14 -5 0 -10 9 -10 21 0 11 5 17
10 14 6 -3 10 -13 10 -21z m-630 -13 c0 -14 -5 -18 -19 -14 -31 8 -35 33 -6
33 18 0 25 -5 25 -19z m30 -1 c0 -11 -4 -20 -8 -20 -4 0 -8 9 -9 20 -1 11 2
20 8 20 5 0 9 -9 9 -20z m640 8 c0 -4 -7 -8 -15 -8 -8 0 -15 4 -15 8 0 5 7 9
15 9 8 0 15 -4 15 -9z m17 -10 c-3 -8 -6 -5 -6 6 -1 11 2 17 5 13 3 -3 4 -12
1 -19z m-614 -7 c-4 -3 -11 -10 -15 -15 -5 -5 -8 0 -8 12 0 15 4 20 16 15 9
-3 12 -9 7 -12z m739 -23 c-13 -13 -62 2 -62 18 0 8 5 14 11 14 5 0 7 -6 4
-12 -3 -7 0 -5 7 4 11 16 14 16 30 1 11 -10 15 -20 10 -25z m-696 20 c4 -6 3
-8 -4 -4 -5 3 -13 0 -15 -6 -3 -8 -6 -6 -6 5 -1 19 14 23 25 5z m28 -13 c-4
-8 -1 -15 5 -15 6 0 11 5 11 10 0 6 9 10 20 10 13 0 17 -5 14 -14 -8 -21 -58
-15 -62 7 -2 9 1 17 7 17 6 0 8 -7 5 -15z m-216 -8 c8 3 16 -4 19 -17 3 -12 9
-17 12 -11 5 8 30 6 84 -6 52 -11 74 -20 67 -27 -19 -19 -51 -16 -71 6 -18 22
-18 22 -19 3 -1 -20 -1 -20 -16 0 -11 15 -17 17 -23 7 -11 -18 -118 -5 -126
16 -9 23 13 42 38 33 12 -5 28 -6 35 -4z m1025 -3 c15 -3 27 -12 27 -20 0 -17
-40 -18 -109 -2 -45 10 -48 13 -33 25 16 12 39 12 115 -3z m-686 -19 c0 -8 -4
-12 -9 -9 -4 3 -8 9 -8 15 0 5 4 9 8 9 5 0 9 -7 9 -15z m43 -4 c0 -14 2 -14
10 -1 8 13 10 12 10 -2 0 -10 -7 -18 -15 -18 -8 0 -15 5 -15 11 0 5 -4 7 -10
4 -5 -3 -10 0 -10 8 0 7 7 14 15 14 8 0 15 -7 15 -16z m50 -16 c0 -14 -4 -25
-9 -25 -4 0 -6 11 -3 25 2 14 6 25 8 25 2 0 4 -11 4 -25z m27 -7 c-3 -8 -6 -5
-6 6 -1 11 2 17 5 13 3 -3 4 -12 1 -19z m80 -10 c-3 -8 -6 -5 -6 6 -1 11 2 17
5 13 3 -3 4 -12 1 -19z m-204 -13 c21 0 27 -5 27 -23 0 -20 -3 -21 -27 -15
-16 4 -50 7 -78 7 -27 0 -42 2 -32 4 9 2 17 12 17 22 0 17 5 18 33 12 17 -3
44 -7 60 -7z m137 -40 c0 -33 -15 -33 -16 0 -1 14 2 25 7 25 5 0 9 -11 9 -25z
m265 15 c3 -5 -1 -10 -9 -10 -9 0 -16 5 -16 10 0 6 4 10 9 10 6 0 13 -4 16
-10z m-897 -12 c7 -7 12 -22 12 -34 0 -28 -52 -53 -74 -35 -21 18 -30 62 -14
72 19 13 62 11 76 -3z m602 -4 c0 -9 -7 -14 -17 -12 -25 5 -28 28 -4 28 12 0
21 -6 21 -16z m105 -8 c28 -7 55 -11 62 -9 6 2 15 -1 19 -8 4 -8 3 -9 -4 -5
-7 4 -12 3 -12 -1 0 -15 -38 -12 -51 3 -10 12 -14 12 -20 2 -6 -10 -12 -8 -23
7 -9 11 -16 14 -16 8 0 -18 -20 -16 -20 2 0 18 2 18 65 1z m186 -45 c7 11 9
11 9 -3 0 -19 -11 -23 -24 -11 -4 4 -15 8 -23 8 -9 0 -18 6 -20 13 -3 7 3 12
14 12 15 0 16 -2 3 -10 -10 -7 -11 -10 -2 -10 7 0 16 8 20 18 6 14 7 13 10 -7
3 -19 6 -21 13 -10z m-706 -6 c46 -14 49 -15 71 -15 13 0 13 -2 -2 -17 -13
-13 -19 -14 -22 -5 -2 6 -8 12 -13 12 -6 0 -7 -5 -3 -11 5 -8 1 -8 -13 0 -11
6 -23 8 -26 4 -10 -10 -117 -11 -117 -1 0 22 45 57 65 51 11 -3 38 -12 60 -18z
m744 -7 c-1 -31 -1 -31 -8 -8 -5 14 -6 28 -4 33 9 15 13 6 12 -25z m55 -4 c20
-19 21 -31 2 -15 -8 6 -19 10 -26 9 -7 -2 -15 3 -17 10 -7 17 23 15 41 -4z
m52 -14 c0 -11 -1 -20 -1 -20 0 0 -8 9 -18 20 -16 19 -16 20 1 20 11 0 18 -8
18 -20z m-679 -4 c3 -3 1 -6 -6 -6 -8 0 -11 -6 -7 -17 6 -15 5 -15 -13 1 -14
12 -20 14 -23 5 -2 -7 -11 -10 -21 -6 -30 11 -9 35 29 32 19 -1 37 -5 41 -9z
m33 -17 c0 -10 -6 -19 -14 -19 -9 0 -12 8 -8 25 5 28 22 24 22 -6z m810 6 c6
-8 9 -19 5 -25 -9 -15 -41 -12 -56 6 -10 13 -10 17 2 25 20 13 35 11 49 -6z
m-723 -30 c2 -11 0 -15 -2 -9 -3 6 -18 9 -34 6 -28 -4 -47 10 -37 27 11 16 71
-4 73 -24z m-298 -15 c7 -18 10 -20 10 -7 1 12 7 17 19 14 9 -3 35 -8 57 -12
75 -13 90 -16 94 -21 2 -2 -3 -4 -12 -4 -10 0 -17 -4 -17 -9 0 -12 -41 -2 -61
16 -14 12 -18 12 -22 1 -4 -10 -8 -10 -16 2 -9 12 -13 13 -20 2 -6 -10 -22
-12 -65 -7 -58 8 -72 16 -62 40 3 9 19 13 45 12 34 -1 42 -6 50 -27z m376 10
c3 -5 -1 -10 -10 -10 -9 0 -13 5 -10 10 3 6 8 10 10 10 2 0 7 -4 10 -10z m115
0 c0 -5 -4 -10 -10 -10 -5 0 -10 5 -10 10 0 6 5 10 10 10 6 0 10 -4 10 -10z
m-75 -18 c-3 -3 -11 0 -18 7 -9 10 -8 11 6 5 10 -3 15 -9 12 -12z m125 -16 c0
-16 -2 -18 -9 -7 -5 7 -14 10 -20 7 -7 -4 -11 1 -11 12 0 15 5 19 20 15 12 -3
20 -14 20 -27z m23 4 c-3 -11 -7 -20 -9 -20 -2 0 -4 9 -4 20 0 11 4 20 9 20 5
0 7 -9 4 -20z m49 -10 c5 -12 7 -12 7 3 1 17 12 22 25 10 6 -6 20 -9 64 -15 6
-1 12 -11 11 -22 0 -12 -2 -16 -5 -11 -2 6 -20 10 -40 9 -26 -2 -34 1 -30 12
4 11 2 12 -16 1 -16 -9 -22 -9 -25 1 -3 6 -9 10 -14 6 -5 -3 -9 2 -9 10 0 20
23 16 32 -4z m-336 -9 c18 -5 37 -5 47 1 14 7 17 4 17 -17 0 -25 -2 -26 -31
-20 -47 10 -63 13 -76 14 -17 1 -17 31 0 31 6 0 26 -4 43 -9z m514 -19 c0 -10
-7 -19 -14 -19 -11 0 -13 5 -5 19 5 10 12 18 14 18 3 0 5 -8 5 -18z m30 8 c0
-5 -2 -10 -4 -10 -3 0 -8 5 -11 10 -3 6 -1 10 4 10 6 0 11 -4 11 -10z m-819
-25 c4 -11 8 -14 8 -7 1 9 11 11 39 6 20 -4 45 -7 54 -6 10 0 20 -3 23 -8 3
-4 14 -6 24 -3 10 3 22 -1 27 -8 5 -9 2 -11 -9 -6 -11 4 -17 1 -17 -7 0 -18
-40 -9 -58 13 -11 14 -14 14 -22 1 -9 -13 -11 -13 -19 -1 -7 10 -13 12 -23 5
-7 -6 -20 -10 -28 -9 -8 1 -31 3 -51 3 -23 1 -39 8 -43 18 -10 26 2 34 46 31
30 -2 43 -8 49 -22z m399 3 c0 -9 4 -8 10 2 8 13 10 12 10 -3 0 -12 -6 -17
-17 -15 -18 3 -31 28 -14 28 6 0 11 -6 11 -12z m50 4 c0 -5 9 -8 20 -8 10 1
19 -3 19 -9 1 -5 -9 -10 -22 -10 -21 0 -37 11 -37 28 0 4 5 7 10 7 6 0 10 -4
10 -8z m120 -29 c0 -7 -6 -13 -13 -13 -8 0 -14 6 -14 13 0 8 6 14 14 14 7 0
13 -6 13 -14z m-257 -15 c20 0 27 -4 27 -18 0 -17 -8 -19 -77 -17 -42 1 -69 3
-60 5 10 2 17 12 17 24 0 17 4 19 33 12 17 -4 44 -6 60 -6z m394 -20 c-3 -7
-5 -2 -5 12 0 14 2 19 5 13 2 -7 2 -19 0 -25z m37 7 c-4 -8 -8 -15 -10 -15 -2
0 -4 7 -4 15 0 8 4 15 10 15 5 0 7 -7 4 -15z m36 -8 c0 6 8 10 18 8 9 -2 22
-4 27 -4 6 -1 4 -5 -3 -10 -21 -13 -55 -8 -59 9 -4 13 -3 13 6 0 6 -9 11 -10
11 -3z m-780 -19 c5 -13 9 -17 9 -9 1 13 48 11 139 -5 31 -6 42 -14 19 -14
-10 0 -17 -4 -17 -8 0 -16 -49 -11 -59 6 -9 15 -12 15 -20 2 -9 -13 -12 -12
-25 5 -9 11 -16 14 -16 8 0 -21 -116 -17 -124 3 -10 25 2 34 45 34 32 0 41 -4
49 -22z m450 11 c0 -4 8 -5 19 -2 10 3 22 0 25 -6 4 -6 2 -11 -4 -11 -6 0 -9
-4 -6 -8 3 -5 -8 -6 -25 -4 -16 2 -29 8 -29 12 0 4 -11 5 -25 2 -17 -3 -25 0
-25 10 0 10 11 15 35 15 19 0 35 -4 35 -8z m-80 -9 c0 -5 -2 -10 -4 -10 -3 0
-8 5 -11 10 -3 6 -1 10 4 10 6 0 11 -4 11 -10z m196 -27 c-3 -8 -6 -17 -6 -19
0 -2 -3 -4 -7 -4 -5 0 -9 11 -9 24 -1 18 2 23 13 19 8 -3 12 -12 9 -20z m-708
-10 c46 -5 52 -9 52 -28 0 -26 -20 -34 -70 -28 -19 1 -46 4 -59 6 -15 1 -25 9
-27 22 -4 26 15 47 35 40 9 -4 40 -9 69 -12z m482 -20 c0 -22 -3 -24 -30 -19
-16 3 -43 9 -60 12 -18 3 -30 12 -30 21 0 13 9 15 45 11 24 -3 42 -2 40 2 -3
5 4 6 15 3 13 -4 20 -14 20 -30z m310 27 c0 -5 -7 -10 -15 -10 -8 0 -15 5 -15
10 0 6 7 10 15 10 8 0 15 -4 15 -10z m47 -12 c-3 -8 -6 -5 -6 6 -1 11 2 17 5
13 3 -3 4 -12 1 -19z m92 -20 c1 -5 -3 -8 -9 -8 -5 0 -10 12 -9 28 0 24 1 25
9 7 5 -11 9 -23 9 -27z m-31 14 c2 -7 -3 -12 -12 -12 -9 0 -16 7 -16 16 0 17
22 14 28 -4z m62 -1 c0 -5 9 -7 20 -4 14 4 20 0 20 -12 0 -12 -5 -15 -16 -11
-9 3 -22 6 -30 6 -8 0 -14 7 -14 15 0 8 5 15 10 15 6 0 10 -4 10 -9z m-355
-16 c11 -1 23 -3 27 -4 4 0 5 -8 2 -16 -7 -16 -53 -11 -65 8 -4 5 -8 4 -11 -4
-6 -17 -38 -4 -38 16 0 12 7 14 33 9 17 -3 41 -7 52 -9z m-258 -1 c-3 -3 -12
-4 -19 -1 -8 3 -5 6 6 6 11 1 17 -2 13 -5z m-119 -20 c15 -3 56 -7 91 -9 55
-3 66 -6 73 -24 5 -15 3 -21 -7 -21 -8 0 -15 8 -16 18 0 10 -3 12 -6 5 -6 -15
-43 -17 -43 -3 0 6 -7 10 -15 10 -8 0 -15 -6 -15 -12 0 -10 -2 -10 -8 0 -5 7
-16 10 -24 7 -8 -3 -24 2 -34 12 -16 16 -17 16 -11 1 7 -21 -12 -36 -23 -18
-10 16 -60 5 -60 -13 0 -17 20 -46 20 -29 0 9 10 11 37 6 39 -7 59 -10 108
-14 18 -1 23 -4 13 -7 -10 -2 -18 -8 -18 -12 0 -15 -50 -10 -59 7 -9 15 -12
15 -21 2 -9 -13 -11 -13 -19 -1 -7 11 -13 12 -23 3 -18 -14 -93 -13 -114 3
-11 8 -15 19 -10 30 5 13 13 16 37 11 25 -5 30 -3 25 9 -4 11 2 15 20 15 14 0
22 4 19 10 -3 6 -3 15 0 20 6 9 15 9 83 -6z m479 -9 c0 -8 -4 -15 -9 -15 -4 0
-8 7 -8 15 0 8 4 15 8 15 5 0 9 -7 9 -15z m-273 -54 c-6 -8 -24 12 -24 28 0
31 15 34 21 4 3 -15 4 -30 3 -32z m346 49 c0 -5 -2 -10 -4 -10 -3 0 -8 5 -11
10 -3 6 -1 10 4 10 6 0 11 -4 11 -10z m65 1 c3 -5 1 -12 -5 -16 -5 -3 -10 1
-10 9 0 18 6 21 15 7z m77 -16 c3 -14 1 -25 -3 -25 -5 0 -9 11 -9 25 0 14 2
25 4 25 2 0 6 -11 8 -25z m-24 -3 c2 -7 -3 -12 -12 -12 -9 0 -16 7 -16 16 0
17 22 14 28 -4z m-397 -2 c12 0 19 -7 19 -18 0 -15 -6 -17 -35 -14 -19 2 -38
8 -41 13 -8 14 7 31 23 25 8 -3 23 -6 34 -6z m459 1 c0 -5 9 -7 20 -4 14 4 20
0 20 -12 0 -12 -5 -15 -16 -11 -9 3 -22 6 -30 6 -8 0 -14 7 -14 15 0 8 5 15
10 15 6 0 10 -4 10 -9z m-255 -21 c3 -5 2 -10 -4 -10 -5 0 -13 5 -16 10 -3 6
-2 10 4 10 5 0 13 -4 16 -10z m-70 -10 c3 -5 -1 -10 -9 -10 -9 0 -16 5 -16 10
0 6 4 10 9 10 6 0 13 -4 16 -10z m119 -15 l8 -20 8 20 c8 19 9 19 9 -2 1 -24
-13 -31 -24 -12 -4 6 -13 8 -21 5 -9 -3 -14 2 -14 14 0 25 22 22 34 -5z m66
-5 c0 -11 -7 -20 -15 -20 -8 0 -15 9 -15 20 0 11 7 20 15 20 8 0 15 -9 15 -20z
m98 -2 c6 -1 12 -7 12 -13 0 -7 -16 -12 -40 -12 -22 0 -40 4 -40 9 0 5 -4 6
-10 3 -5 -3 -10 0 -10 8 0 13 20 14 88 5z m90 -22 c-16 -9 -25 -9 -30 -2 -13
19 -9 23 23 18 30 -4 30 -5 7 -16z m-528 -8 c0 -20 -19 -22 -82 -12 -23 4 -38
12 -38 20 0 11 14 14 60 12 49 -3 60 -6 60 -20z m80 -16 c0 -16 -32 -12 -37 5
-3 7 4 11 16 10 12 -1 21 -7 21 -15z m30 9 c0 -4 11 -6 25 -3 15 2 25 0 25 -7
0 -6 -3 -11 -7 -12 -5 0 -20 -2 -35 -4 -22 -3 -28 0 -28 16 0 10 5 19 10 19 6
0 10 -4 10 -9z m-454 -24 c5 -14 8 -16 14 -7 6 9 23 11 66 5 33 -5 67 -9 76
-10 23 -2 36 -15 15 -15 -8 0 -17 -5 -19 -11 -3 -8 -9 -6 -20 5 -12 12 -18 13
-21 3 -3 -8 -10 -6 -21 8 -14 18 -15 18 -16 3 0 -10 -4 -18 -9 -18 -5 0 -12 8
-16 18 -6 15 -7 16 -16 1 -7 -13 -20 -16 -61 -12 -58 5 -74 14 -65 37 9 23 85
17 93 -7z m211 17 c-3 -3 -12 -4 -19 -1 -8 3 -5 6 6 6 11 1 17 -2 13 -5z m163
-4 c0 -5 -4 -10 -10 -10 -5 0 -10 5 -10 10 0 6 5 10 10 10 6 0 10 -4 10 -10z
m200 -14 c0 -7 -10 -16 -22 -20 -33 -8 -58 -5 -28 3 14 4 24 13 23 19 -2 7 4
12 12 12 8 0 15 -6 15 -14z m127 -18 c-3 -8 -6 -5 -6 6 -1 11 2 17 5 13 3 -3
4 -12 1 -19z m80 -10 c-3 -7 -5 -2 -5 12 0 14 2 19 5 13 2 -7 2 -19 0 -25z
m-17 1 c0 -5 -7 -9 -15 -9 -15 0 -20 12 -9 23 8 8 24 -1 24 -14z m-1267 -4
c-4 -15 -36 -12 -41 3 -3 9 3 13 19 10 13 -1 23 -7 22 -13z m780 6 c21 -5 39
-5 43 0 10 17 24 9 24 -13 0 -22 -4 -23 -83 -23 -45 0 -72 1 -59 3 14 2 22 10
22 23 0 22 1 22 53 10z m547 -3 c0 -9 3 -9 12 0 16 16 28 15 28 -3 0 -10 -10
-15 -28 -15 -19 0 -29 5 -29 15 0 8 4 15 9 15 4 0 8 -5 8 -12z m-360 -20 c8 0
22 -2 30 -4 13 -5 13 -6 0 -14 -22 -14 -60 -12 -60 3 0 9 -2 9 -8 -1 -11 -16
-42 -5 -42 14 0 11 8 13 33 8 17 -3 39 -6 47 -6z m-449 -38 c3 13 16 13 89 4
47 -6 77 -12 68 -13 -10 0 -18 -5 -18 -9 0 -14 -48 -12 -61 4 -10 12 -14 12
-21 2 -6 -10 -10 -10 -19 2 -8 11 -12 12 -16 3 -6 -16 -122 -18 -124 -3 -5 31
-1 35 36 40 35 5 41 2 51 -20 8 -16 13 -20 15 -10z m559 9 c-13 -24 -25 -25
-27 -1 -1 11 6 18 18 19 16 2 17 -1 9 -18z m137 -21 c-3 -7 -5 -2 -5 12 0 14
2 19 5 13 2 -7 2 -19 0 -25z m63 14 c0 -5 14 -6 31 -4 24 4 30 1 27 -9 -6 -17
-59 -13 -70 4 -6 9 -11 8 -18 -3 -8 -13 -10 -12 -10 3 0 10 8 17 20 17 11 0
20 -4 20 -8z m-430 -27 c0 -25 -1 -25 -61 -20 -46 5 -59 3 -53 -6 4 -7 3 -9
-4 -6 -5 4 -8 17 -5 28 5 19 11 21 54 16 27 -3 51 -2 54 4 10 15 15 10 15 -16z
m187 19 c-3 -3 -12 -4 -19 -1 -8 3 -5 6 6 6 11 1 17 -2 13 -5z m-77 -36 c0 -6
7 -5 15 2 12 10 19 10 27 2 9 -9 9 -12 -1 -12 -7 0 -9 -5 -6 -10 9 -15 -48 0
-57 14 -5 8 -8 7 -8 -1 0 -15 -26 -17 -35 -3 -3 6 -4 14 -1 18 7 12 66 2 66
-10z m-540 -19 c0 -14 -7 -19 -30 -19 -17 0 -30 5 -30 13 0 8 -3 7 -10 -3 -7
-12 -12 -12 -35 0 -34 18 -17 27 51 28 47 0 54 -2 54 -19z m658 9 c-2 -6 -10
-14 -16 -16 -7 -2 -10 2 -6 12 7 18 28 22 22 4z m142 -5 c0 -5 -5 -15 -10 -23
-8 -12 -10 -11 -10 8 0 12 5 22 10 22 6 0 10 -3 10 -7z m76 -18 c1 -8 -2 -15
-7 -15 -5 0 -9 10 -9 22 0 23 12 17 16 -7z m-631 -1 c50 -2 94 -4 99 -4 5 0 3
-6 -3 -14 -9 -11 -9 -15 1 -19 8 -4 7 -6 -4 -6 -11 -1 -18 6 -19 17 0 10 -3
12 -6 5 -6 -15 -43 -17 -43 -3 0 15 -30 12 -31 -2 0 -10 -2 -10 -6 0 -2 6 -12
12 -21 12 -15 0 -15 -2 -2 -10 10 -6 -5 -8 -45 -5 -62 5 -90 -4 -84 -24 4 -11
93 -23 157 -22 21 1 22 -1 8 -14 -19 -20 -45 -19 -68 2 -17 15 -18 15 -18 0 0
-20 -16 -23 -23 -4 -3 9 -7 9 -18 1 -23 -18 -110 -12 -123 9 -14 23 9 40 43
32 18 -5 22 -3 18 9 -5 12 0 16 19 16 14 0 22 4 19 10 -11 19 7 32 34 25 14
-4 67 -9 116 -11z m492 10 c-3 -3 -12 -4 -19 -1 -8 3 -5 6 6 6 11 1 17 -2 13
-5z m111 -12 c2 -7 -3 -12 -12 -12 -9 0 -16 7 -16 16 0 17 22 14 28 -4z m-468
-13 c0 -16 3 -19 13 -11 22 18 71 9 74 -13 2 -12 0 -14 -3 -6 -5 10 -8 10 -14
1 -5 -8 -11 -7 -24 5 -9 9 -16 12 -16 6 0 -6 -10 -11 -23 -11 -17 0 -23 6 -25
25 -1 14 3 25 8 25 6 0 10 -10 10 -21z m568 9 c-6 -16 -45 -20 -51 -4 -4 9 4
13 25 14 17 0 28 -4 26 -10z m1459 -10 c-3 -8 -6 -5 -6 6 -1 11 2 17 5 13 3
-3 4 -12 1 -19z m-1747 -16 c0 -4 16 -6 35 -4 30 4 35 1 35 -17 0 -14 -6 -21
-20 -21 -11 0 -20 5 -20 11 0 5 -4 8 -10 4 -5 -3 -18 3 -30 15 -15 15 -17 20
-5 20 8 0 15 -4 15 -8z m-110 -12 c0 -5 -4 -10 -9 -10 -6 0 -13 5 -16 10 -3 6
1 10 9 10 9 0 16 -4 16 -10z m40 0 c0 -5 -7 -10 -15 -10 -8 0 -15 5 -15 10 0
6 7 10 15 10 8 0 15 -4 15 -10z m232 -2 c11 0 15 -5 12 -16 -5 -15 -4 -15 6 1
15 24 40 22 40 -4 0 -18 -5 -20 -37 -18 -21 2 -41 8 -45 14 -5 7 -8 6 -8 -1 0
-7 -11 -9 -25 -6 -17 3 -25 11 -25 24 0 17 4 19 33 12 17 -4 40 -7 49 -6z
m125 -28 c-1 -11 -8 -20 -15 -20 -11 0 -12 3 -3 13 6 8 8 17 4 20 -3 4 -1 7 5
7 6 0 10 -9 9 -20z m40 14 c-3 -3 -12 -4 -19 -1 -8 3 -5 6 6 6 11 1 17 -2 13
-5z m20 -36 c-3 -7 -5 -2 -5 12 0 14 2 19 5 13 2 -7 2 -19 0 -25z m-577 -3 c0
-22 -3 -24 -32 -21 -18 3 -45 5 -60 5 -44 1 -36 31 8 31 23 0 33 -4 28 -11 -3
-6 7 -4 22 5 16 8 30 15 32 16 1 0 2 -11 2 -25z m60 -7 c0 -9 4 -8 10 2 8 13
10 13 10 -1 0 -21 -9 -29 -26 -22 -16 6 -19 33 -4 33 6 0 10 -6 10 -12z m50 3
c0 -4 12 -6 26 -3 20 3 25 1 22 -9 -2 -7 -19 -15 -36 -16 -26 -2 -32 1 -32 17
0 11 5 20 10 20 6 0 10 -4 10 -9z m124 -27 c3 -9 0 -14 -7 -13 -6 1 -20 -1
-29 -5 -10 -5 -23 -6 -30 -3 -7 3 -3 6 10 6 20 1 27 11 23 33 -2 13 27 -3 33
-18z m136 9 c0 -5 -5 -15 -10 -23 -8 -12 -10 -11 -10 8 0 12 5 22 10 22 6 0
10 -3 10 -7z m80 -13 c0 -11 -4 -20 -10 -20 -5 0 -10 9 -10 20 0 11 5 20 10
20 6 0 10 -9 10 -20z m-790 -3 c8 -3 51 -8 95 -12 43 -3 81 -8 84 -10 2 -3 -3
-5 -12 -5 -10 0 -17 -4 -17 -8 0 -14 -48 -12 -61 4 -10 12 -14 12 -21 2 -6
-10 -10 -10 -18 2 -8 12 -12 12 -18 3 -13 -20 -107 -26 -122 -8 -22 26 -5 45
37 41 21 -1 45 -6 53 -9z m647 7 c-3 -3 -12 -4 -19 -1 -8 3 -5 6 6 6 11 1 17
-2 13 -5z m113 -9 c0 -8 -7 -15 -15 -15 -8 0 -15 7 -15 15 0 8 7 15 15 15 8 0
15 -7 15 -15z m2563 4 c12 -7 24 -15 27 -18 4 -6 52 -27 117 -51 12 -5 26 -24
33 -45 11 -32 10 -38 -7 -50 -24 -18 -90 -27 -183 -27 -60 1 -91 7 -152 31
-42 17 -85 31 -95 31 -22 0 -99 38 -127 63 -17 15 -18 17 -3 17 9 0 17 6 17
14 0 34 319 63 373 35z m-2463 -14 c0 -7 -10 -12 -25 -11 -36 2 -39 23 -4 24
18 0 29 -4 29 -13z m-580 -25 c0 -9 3 -11 8 -4 4 6 17 13 30 16 17 5 22 2 22
-13 0 -16 -7 -19 -49 -19 -27 0 -61 -2 -77 -4 -16 -2 -21 -1 -11 1 9 2 17 13
17 24 0 15 6 19 30 17 19 -1 30 -8 30 -18z m162 -4 c49 1 66 -5 47 -17 -21
-13 -59 -11 -60 4 0 10 -2 10 -6 0 -6 -15 -29 -17 -38 -3 -3 6 -3 15 1 22 4 7
9 8 11 3 2 -6 22 -9 45 -9z m127 -27 c-7 -13 -20 -19 -42 -18 -28 2 -29 2 -6
6 20 3 26 9 22 23 -4 15 -1 18 16 13 17 -4 19 -9 10 -24z m-199 11 c0 -5 -2
-10 -4 -10 -3 0 -8 5 -11 10 -3 6 -1 10 4 10 6 0 11 -4 11 -10z m340 3 c0 -5
-5 -15 -10 -23 -8 -12 -10 -11 -10 8 0 12 5 22 10 22 6 0 10 -3 10 -7z m80
-13 c0 -11 -4 -20 -10 -20 -5 0 -10 9 -10 20 0 11 5 20 10 20 6 0 10 -9 10
-20z m-763 -16 c15 -1 54 -3 86 -4 31 -2 60 -7 64 -13 4 -6 0 -8 -10 -4 -11 4
-17 1 -17 -7 0 -17 -50 -12 -61 6 -7 11 -11 10 -19 -2 -9 -13 -11 -13 -19 -1
-8 12 -12 12 -24 2 -9 -7 -37 -11 -69 -9 -45 3 -53 6 -53 23 0 16 8 21 40 25
22 3 43 1 47 -4 3 -5 19 -10 35 -12z m620 20 c-3 -3 -12 -4 -19 -1 -8 3 -5 6
6 6 11 1 17 -2 13 -5z m113 -9 c0 -8 -7 -15 -15 -15 -8 0 -15 7 -15 15 0 8 7
15 15 15 8 0 15 -7 15 -15z m80 2 c14 4 20 0 20 -11 0 -19 -1 -19 -35 -6 -17
6 -23 14 -19 22 5 8 9 9 11 1 2 -6 13 -9 23 -6z m-500 -42 c0 -29 -21 -33 -44
-9 -9 8 -16 11 -16 5 0 -6 -13 -11 -30 -11 -21 0 -30 5 -30 16 0 12 10 15 45
13 24 -2 47 0 51 4 14 14 24 6 24 -18z m60 -7 c0 -9 4 -8 10 2 8 13 10 12 10
-3 0 -12 -6 -17 -17 -15 -18 3 -31 28 -14 28 6 0 11 -6 11 -12z m50 1 c0 -8 5
-7 15 1 12 10 19 10 27 2 9 -9 9 -12 -1 -12 -7 0 -10 -4 -7 -8 3 -5 -8 -6 -25
-4 -26 4 -43 32 -19 32 6 0 10 -5 10 -11z m117 -14 c0 -8 -6 -15 -13 -15 -8 0
-11 6 -8 15 4 8 9 15 13 15 4 0 8 -7 8 -15z m140 -17 c-3 -7 -5 -2 -5 12 0 14
2 19 5 13 2 -7 2 -19 0 -25z m-60 16 c-3 -3 -12 -4 -19 -1 -8 3 -5 6 6 6 11 1
17 -2 13 -5z m123 -6 c0 -9 3 -9 8 -3 6 10 18 11 47 6 17 -2 -19 -21 -42 -21
-12 0 -24 6 -26 13 -4 9 -8 8 -16 -3 -9 -13 -11 -13 -11 3 0 10 8 17 20 17 11
0 20 -6 20 -12z m-243 -14 c-3 -3 -12 -4 -19 -1 -8 3 -5 6 6 6 11 1 17 -2 13
-5z m-514 -86 c18 1 27 -3 24 -11 -4 -13 -67 -21 -67 -8 0 4 -11 6 -25 3 -14
-2 -25 0 -25 5 0 18 13 23 39 16 14 -4 39 -6 54 -5z m67 -13 c0 -14 -2 -25 -4
-25 -2 0 -6 11 -8 25 -3 14 -1 25 3 25 5 0 9 -11 9 -25z m46 3 c5 -7 3 -8 -6
-3 -10 6 -12 4 -6 -11 5 -14 4 -16 -5 -7 -6 6 -8 16 -5 22 9 14 13 14 22 -1z
m77 -8 c3 -11 1 -20 -4 -20 -5 0 -9 9 -9 20 0 11 2 20 4 20 2 0 6 -9 9 -20z
m-38 -19 c-6 -5 -25 10 -25 20 0 5 6 4 14 -3 8 -7 12 -15 11 -17z m85 14 c0
-8 -4 -15 -10 -15 -5 0 -7 7 -4 15 4 8 8 15 10 15 2 0 4 -7 4 -15z m70 -1 c0
-6 -7 -11 -15 -11 -8 0 -15 4 -15 9 0 4 -5 8 -11 8 -5 0 -7 -5 -3 -12 4 -7 3
-8 -5 -4 -6 4 -9 11 -6 16 7 12 55 7 55 -6z m126 -3 c0 -11 -4 -17 -8 -15 -4
3 -8 12 -8 20 0 8 4 14 8 14 4 0 8 -9 8 -19z m77 -6 c-7 -21 -13 -19 -13 6 0
11 4 18 10 14 5 -3 7 -12 3 -20z m47 -4 c0 -13 -2 -13 -9 -2 -7 11 -9 11 -14
0 -3 -8 -6 -5 -6 8 -1 16 3 21 14 17 8 -4 15 -14 15 -23z m-155 0 c-8 -14 -25
-14 -25 0 0 5 5 7 10 4 6 -3 10 -1 10 6 0 7 3 10 6 6 3 -3 3 -10 -1 -16z m345
-1 c0 -11 -7 -20 -15 -20 -8 0 -15 8 -15 18 0 14 2 15 10 2 8 -13 10 -12 10 3
0 9 2 17 5 17 3 0 5 -9 5 -20z m-90 -6 c0 -8 -5 -12 -10 -9 -6 4 -8 11 -5 16
9 14 15 11 15 -7z m47 -6 c-3 -8 -6 -5 -6 6 -1 11 2 17 5 13 3 -3 4 -12 1 -19z
m189 11 c4 -8 9 -7 15 2 7 11 9 10 9 -3 0 -11 -8 -18 -20 -18 -11 0 -20 6 -20
13 0 8 -4 7 -10 -3 -5 -8 -10 -10 -10 -4 0 23 24 32 36 13z m-1066 -18 c3 -3
39 -7 80 -9 41 -1 78 -6 83 -11 16 -16 -57 -41 -99 -34 -35 6 -38 5 -25 -10 9
-12 26 -16 62 -14 29 2 50 -1 53 -8 2 -6 21 -10 42 -9 49 2 58 -3 40 -22 -18
-18 -102 -19 -109 -1 -4 8 -8 9 -14 1 -4 -6 -30 -14 -56 -18 -48 -7 -48 -7
-33 -31 22 -34 20 -43 -16 -65 -59 -36 -114 -20 -101 28 3 15 1 22 -8 22 -8 0
-20 4 -28 9 -12 8 -12 13 3 36 10 16 15 36 12 48 -3 12 4 40 15 64 19 40 22
41 57 36 20 -3 39 -9 42 -12z m1020 9 c0 -5 -5 -10 -11 -10 -5 0 -7 5 -4 10 3
6 8 10 11 10 2 0 4 -4 4 -10z m130 0 c0 -5 -2 -10 -4 -10 -3 0 -8 5 -11 10 -3
6 -1 10 4 10 6 0 11 -4 11 -10z m-856 -52 c-3 -4 -23 -8 -45 -8 -28 0 -39 4
-39 15 0 8 9 15 19 15 11 0 22 4 26 10 3 5 14 2 25 -7 10 -9 17 -20 14 -25z
m276 6 c0 -13 -4 -24 -10 -24 -5 0 -10 14 -10 31 0 17 4 28 10 24 6 -3 10 -17
10 -31z m-118 1 c3 -15 1 -25 -6 -25 -6 0 -11 11 -11 25 0 14 3 25 6 25 4 0 9
-11 11 -25z m-82 4 c0 -8 5 -7 15 1 12 10 19 10 27 2 9 -9 9 -12 -1 -12 -7 0
-10 -4 -7 -8 3 -5 -8 -9 -24 -9 -16 0 -27 4 -24 9 3 4 0 8 -6 8 -6 0 -8 5 -5
10 8 14 25 13 25 -1z m320 -9 c0 -11 -4 -20 -8 -20 -4 0 -8 9 -9 20 -1 11 2
20 8 20 5 0 9 -9 9 -20z m-162 -7 c10 -10 4 -12 -25 -10 -20 1 -38 8 -41 15
-5 16 50 13 66 -5z m-318 -19 c0 -2 -12 -4 -26 -4 -14 0 -23 4 -20 9 6 8 46 4
46 -5z m170 -51 c0 -9 -14 -12 -42 -10 -44 2 -56 19 -18 25 11 2 20 8 20 13 0
5 9 4 20 -3 11 -7 20 -18 20 -25z m147 -5 c-3 -7 -5 -2 -5 12 0 14 2 19 5 13
2 -7 2 -19 0 -25z m126 13 c-4 -3 -11 -10 -15 -15 -5 -5 -8 0 -8 12 0 15 4 20
16 15 9 -3 12 -9 7 -12z m-153 -1 c0 -10 -26 -20 -51 -20 -36 0 -20 26 16 27
19 1 35 -3 35 -7z m108 -3 c-12 -13 -68 -19 -68 -7 0 13 12 18 45 18 25 0 31
-3 23 -11z m119 -7 c1 -11 -2 -20 -6 -20 -5 0 -11 9 -14 20 -3 12 0 20 7 20 6
0 12 -9 13 -20z m-1692 -20 c0 -22 -39 -19 -43 3 -3 15 1 18 20 15 12 -2 23
-10 23 -18z m2430 -32 c8 -21 15 -46 15 -54 0 -14 -2 -14 -16 -3 -9 7 -20 22
-24 34 -8 18 -9 17 -9 -7 -1 -16 -3 -28 -5 -28 -29 0 -114 -24 -127 -36 -20
-18 -134 -31 -143 -16 -11 17 24 51 57 54 26 2 31 7 29 25 -2 14 5 26 20 34
31 17 116 37 155 36 28 0 34 -5 48 -39z m-1185 -2 c19 -1 44 1 55 4 28 10 53
1 34 -11 -12 -8 -11 -11 1 -19 13 -8 12 -10 -2 -10 -10 0 -18 7 -18 15 0 8 -4
15 -10 15 -5 0 -10 -6 -10 -13 0 -8 -7 -14 -15 -14 -8 0 -15 4 -15 9 0 4 -8 8
-17 8 -15 0 -16 -2 -3 -10 10 -6 5 -9 -18 -8 -19 1 -37 8 -42 17 -9 15 -9 14
-10 -1 0 -13 -11 -16 -72 -15 -58 2 -73 5 -73 17 0 24 62 28 215 16z m450 -30
c-7 -7 -17 -7 -30 2 -24 15 -41 16 -20 1 12 -9 12 -10 1 -7 -24 7 -25 28 -2
28 12 0 21 4 21 10 0 5 9 2 20 -7 13 -12 16 -21 10 -27z m-277 22 c3 -10 8
-10 21 1 14 12 16 12 10 -3 -3 -9 -2 -16 4 -16 6 0 12 5 14 11 4 11 27 13 93
9 17 -1 24 -4 17 -7 -6 -2 -10 -9 -7 -13 3 -5 -4 -8 -15 -7 -11 1 -20 8 -21
17 0 10 -3 9 -8 -4 -5 -14 -10 -16 -15 -8 -4 7 -13 12 -19 12 -8 0 -7 -3 2 -9
9 -6 -5 -9 -41 -8 -44 1 -54 4 -55 19 -2 20 13 25 20 6z m420 -8 c3 -11 1 -20
-4 -20 -5 0 -9 2 -9 4 0 2 -3 11 -6 20 -3 9 -2 16 4 16 5 0 12 -9 15 -20z
m285 -4 c3 -15 -5 -17 -60 -14 -48 2 -64 7 -66 19 -2 13 7 15 60 13 50 -1 64
-5 66 -18z m-324 -2 c3 -8 -6 -11 -30 -10 -19 2 -34 -1 -34 -5 0 -5 -8 -9 -17
-9 -14 0 -15 2 -4 9 7 5 11 13 7 19 -3 6 10 9 34 9 22 0 41 -6 44 -13z m84 -2
c2 -7 -3 -12 -12 -12 -9 0 -16 7 -16 16 0 17 22 14 28 -4z m99 3 c0 -7 -13
-12 -29 -13 -17 0 -28 4 -28 13 0 9 11 13 28 13 16 -1 29 -6 29 -13z m-607 -5
c0 -5 -5 -10 -11 -10 -5 0 -7 5 -4 10 3 6 8 10 11 10 2 0 4 -4 4 -10z m-255
-60 c-3 -38 -9 -44 -24 -27 -7 10 -25 13 -57 9 -32 -3 -49 0 -55 9 -15 24 -11
25 51 23 33 0 60 3 60 7 0 5 6 9 14 9 9 0 13 -10 11 -30z m45 20 c0 -5 -7 -10
-15 -10 -8 0 -15 5 -15 10 0 6 7 10 15 10 8 0 15 -4 15 -10z m130 -21 c0 -10
-4 -19 -10 -19 -5 0 -10 12 -10 26 0 14 4 23 10 19 6 -3 10 -15 10 -26z m506
2 c-1 -31 -16 -33 -16 -2 0 15 8 31 15 31 1 0 2 -13 1 -29z m179 12 c-2 -10
-4 -22 -4 -28 -1 -5 -5 -3 -11 5 -5 9 -5 19 2 27 14 17 17 16 13 -4z m-775 -3
c-19 -13 -30 -13 -30 0 0 6 10 10 23 10 18 0 19 -2 7 -10z m206 -15 c1 -8 -2
-15 -7 -15 -5 0 -9 10 -9 22 0 23 12 17 16 -7z m94 5 c0 -15 -6 -19 -32 -16
-39 3 -49 21 -13 22 14 1 28 4 32 8 10 10 13 7 13 -14z m37 14 c-3 -3 -12 -4
-19 -1 -8 3 -5 6 6 6 11 1 17 -2 13 -5z m183 -16 c0 -18 -2 -20 -9 -8 -6 8 -7
18 -5 22 9 14 14 9 14 -14z m190 2 c0 -17 -7 -20 -50 -20 -37 0 -50 4 -50 14
0 11 14 16 48 19 26 2 48 4 50 5 1 1 2 -7 2 -18z m33 0 c3 -12 0 -20 -8 -20
-8 0 -11 8 -8 20 3 11 7 20 8 20 1 0 5 -9 8 -20z m76 -4 c1 12 57 25 66 16 12
-13 -21 -32 -55 -32 -34 0 -38 2 -32 22 5 21 6 21 13 2 4 -10 8 -14 8 -8z
m-769 4 c0 -5 -3 -10 -7 -11 -5 0 -18 -2 -30 -5 -27 -5 -31 12 -5 19 30 8 42
7 42 -3z m118 -4 c-15 -16 -68 -16 -68 0 0 8 14 13 39 12 29 0 37 -3 29 -12z
m242 -2 c0 -8 -5 -12 -10 -9 -6 4 -8 11 -5 16 9 14 15 11 15 -7z m80 -5 c0 -6
-4 -7 -10 -4 -5 3 -10 11 -10 16 0 6 5 7 10 4 6 -3 10 -11 10 -16z m74 14 c-5
-5 -12 -12 -16 -18 -4 -6 -8 -2 -8 8 0 9 7 17 17 17 9 0 12 -3 7 -7z m-327
-85 c-3 -7 -5 -2 -5 12 0 14 2 19 5 13 2 -7 2 -19 0 -25z m170 0 c-3 -7 -5 -2
-5 12 0 14 2 19 5 13 2 -7 2 -19 0 -25z m250 0 c-3 -7 -5 -2 -5 12 0 14 2 19
5 13 2 -7 2 -19 0 -25z m20 10 c-3 -8 -6 -5 -6 6 -1 11 2 17 5 13 3 -3 4 -12
1 -19z m-757 -13 c0 -12 -59 -14 -66 -3 -3 4 -3 12 0 17 7 11 67 -1 66 -14z
m33 5 c3 -11 1 -20 -4 -20 -5 0 -9 9 -9 20 0 11 2 20 4 20 2 0 6 -9 9 -20z
m497 12 c0 -5 -7 -9 -15 -9 -8 0 -12 4 -9 9 3 4 9 8 15 8 5 0 9 -4 9 -8z m27
-7 c0 -8 -4 -12 -9 -9 -5 3 -6 10 -3 15 9 13 12 11 12 -6z m-450 -17 c-3 -8
-6 -5 -6 6 -1 11 2 17 5 13 3 -3 4 -12 1 -19z m54 2 c6 0 8 4 5 8 -2 4 5 9 17
9 21 2 22 1 3 -13 -27 -19 -46 -18 -45 4 0 10 3 12 6 5 2 -7 9 -13 14 -13z
m-141 -36 c0 -14 -3 -14 -15 -4 -8 7 -15 14 -15 16 0 2 7 4 15 4 8 0 15 -7 15
-16z m617 -26 c-3 -7 -5 -2 -5 12 0 14 2 19 5 13 2 -7 2 -19 0 -25z m190 10
c-3 -8 -6 -5 -6 6 -1 11 2 17 5 13 3 -3 4 -12 1 -19z m100 6 c2 -5 -6 -10 -17
-11 -20 -2 -26 8 -13 21 9 8 26 3 30 -10z m-840 -27 c-7 -21 -32 -13 -35 11
-3 21 -1 22 18 12 12 -6 19 -17 17 -23z m397 18 c-4 -8 -8 -15 -10 -15 -2 0
-4 7 -4 15 0 8 4 15 10 15 5 0 7 -7 4 -15z m122 3 c4 -7 3 -8 -4 -4 -7 4 -12
2 -12 -5 0 -7 -3 -10 -6 -6 -6 5 3 27 11 27 2 0 7 -5 11 -12z m68 -3 c-4 -8
-8 -15 -10 -15 -2 0 -4 7 -4 15 0 8 4 15 10 15 5 0 7 -7 4 -15z m33 0 c0 -8
-4 -12 -9 -9 -5 3 -6 10 -3 15 9 13 12 11 12 -6z m78 5 c-3 -5 -12 -10 -18
-10 -7 0 -6 4 3 10 19 12 23 12 15 0z m22 -12 c-3 -8 -6 -5 -6 6 -1 11 2 17 5
13 3 -3 4 -12 1 -19z m183 12 c0 -5 -9 -10 -20 -10 -11 0 -20 5 -20 10 0 6 9
10 20 10 11 0 20 -4 20 -10z m-862 -21 c3 -12 2 -12 -6 0 -8 11 -11 9 -15 -10
-4 -22 -4 -22 -6 4 -1 30 19 34 27 6z m33 7 c14 8 11 -12 -3 -24 -10 -8 -13
-4 -14 16 -1 15 1 21 3 14 3 -6 9 -10 14 -6z m76 -1 c0 -8 -4 -12 -9 -9 -5 3
-6 10 -3 15 9 13 12 11 12 -6z m40 0 c0 -8 -4 -12 -9 -9 -5 3 -6 10 -3 15 9
13 12 11 12 -6z m60 -7 c-3 -8 -6 -5 -6 6 -1 11 2 17 5 13 3 -3 4 -12 1 -19z
m60 0 c-3 -8 -6 -5 -6 6 -1 11 2 17 5 13 3 -3 4 -12 1 -19z m53 12 c0 -5 -2
-10 -4 -10 -3 0 -8 5 -11 10 -3 6 -1 10 4 10 6 0 11 -4 11 -10z m487 -57 c-10
-10 -56 -12 -62 -3 -3 5 0 7 8 4 8 -3 18 -1 21 5 4 6 13 8 22 4 8 -3 13 -7 11
-10z m41 4 c15 4 15 3 2 -6 -22 -15 -30 -14 -29 7 0 9 3 12 5 5 3 -7 13 -9 22
-6z m477 2 c4 -6 5 -12 2 -15 -7 -7 -37 7 -37 17 0 13 27 11 35 -2z m-1165
-29 c0 -16 -4 -30 -8 -30 -5 0 -7 14 -4 30 2 17 6 30 8 30 2 0 4 -13 4 -30z
m115 20 c3 -5 1 -10 -4 -10 -6 0 -11 5 -11 10 0 6 2 10 4 10 3 0 8 -4 11 -10z
m72 -27 c-3 -10 -5 -4 -5 12 0 17 2 24 5 18 2 -7 2 -21 0 -30z m240 15 c-3 -8
-6 -5 -6 6 -1 11 2 17 5 13 3 -3 4 -12 1 -19z m65 10 c-13 -12 -45 -13 -49 -1
-3 8 6 12 26 10 16 -1 27 -5 23 -9z m-709 -23 c-7 -21 -13 -19 -13 6 0 11 4
18 10 14 5 -3 7 -12 3 -20z m167 15 c0 -13 -38 -32 -50 -25 -6 3 -10 12 -10
18 0 7 4 6 10 -3 9 -13 12 -13 21 3 11 18 29 23 29 7z m77 -12 c-3 -8 -6 -5
-6 6 -1 11 2 17 5 13 3 -3 4 -12 1 -19z m133 1 c0 -6 -4 -7 -10 -4 -5 3 -10
11 -10 16 0 6 5 7 10 4 6 -3 10 -11 10 -16z m100 11 c0 -5 -4 -10 -10 -10 -5
0 -10 5 -10 10 0 6 5 10 10 10 6 0 10 -4 10 -10z m-545 -10 c5 -8 11 -7 21 1
11 9 14 8 14 -4 0 -12 -8 -16 -30 -14 -16 1 -30 8 -30 15 0 15 16 16 25 2z
m125 -3 c0 -8 -7 -14 -15 -14 -25 0 -17 17 13 26 1 1 2 -5 2 -12z m1005 -17
c-5 -8 -11 -8 -17 -2 -6 6 -7 16 -3 22 5 8 11 8 17 2 6 -6 7 -16 3 -22z m-180
-60 c10 -11 24 -20 32 -20 8 0 13 -7 11 -17 -4 -19 -40 -20 -46 -2 -2 5 -10 9
-18 9 -9 0 -12 -4 -9 -10 3 -5 2 -10 -3 -10 -15 0 -20 23 -11 48 10 27 21 28
44 2z m152 -16 c10 -26 -13 -39 -44 -25 -27 12 -27 13 -8 27 25 18 44 18 52
-2z m-505 -29 c3 -14 1 -25 -3 -25 -5 0 -9 11 -9 25 0 14 2 25 4 25 2 0 6 -11
8 -25z m105 -7 c-3 -7 -5 -2 -5 12 0 14 2 19 5 13 2 -7 2 -19 0 -25z m177 17
c-6 -15 -84 -19 -84 -4 0 7 9 9 25 5 14 -4 25 -3 25 2 0 4 8 8 19 8 10 0 17
-5 15 -11z m-238 -7 c4 -7 3 -8 -4 -4 -7 4 -12 2 -12 -5 0 -7 -3 -10 -6 -6 -6
5 3 27 11 27 2 0 7 -5 11 -12z m27 -3 c-3 -9 -8 -14 -10 -11 -3 3 -2 9 2 15 9
16 15 13 8 -4z m111 0 c-4 -8 -10 -12 -15 -9 -11 6 -2 24 11 24 5 0 7 -7 4
-15z m-619 -25 c0 -32 -12 -40 -21 -15 -4 8 -1 22 6 30 16 19 15 20 15 -15z
m45 20 c0 -5 -7 -10 -16 -10 -8 0 -12 5 -9 10 3 6 10 10 16 10 5 0 9 -4 9 -10z
m80 -10 c0 -11 -2 -20 -4 -20 -2 0 -6 9 -9 20 -3 11 -1 20 4 20 5 0 9 -9 9
-20z m240 4 c0 -8 -4 -12 -10 -9 -5 3 -10 10 -10 16 0 5 5 9 10 9 6 0 10 -7
10 -16z m40 7 c0 -12 -20 -25 -27 -18 -7 7 6 27 18 27 5 0 9 -4 9 -9z m-530
-32 c0 -10 -4 -19 -10 -19 -5 0 -10 12 -10 26 0 14 4 23 10 19 6 -3 10 -15 10
-26z m83 25 c8 -8 -3 -34 -14 -34 -5 0 -9 9 -9 20 0 19 11 26 23 14z m122 -30
c-18 -13 -20 -13 -23 2 -5 21 19 37 33 23 7 -7 4 -15 -10 -25z m95 27 c0 -12
-28 -22 -34 -12 -3 5 -3 11 1 15 9 9 33 7 33 -3z m40 -6 c0 -8 -7 -15 -15 -15
-8 0 -15 7 -15 15 0 8 7 15 15 15 8 0 15 -7 15 -15z m60 3 c0 -5 -4 -8 -9 -8
-5 0 -16 -2 -24 -5 -7 -3 -14 0 -14 7 0 7 11 13 24 13 13 0 23 -3 23 -7z
m-352 -24 c2 -14 1 -16 -6 -5 -8 11 -10 11 -14 0 -3 -8 -9 -11 -13 -7 -11 11
3 40 18 36 6 -3 13 -13 15 -24z m1752 10 c0 -8 -5 -12 -10 -9 -6 4 -8 11 -5
16 9 14 15 11 15 -7z m-1852 -6 c-5 -15 -56 -29 -64 -17 -10 16 7 29 37 29 19
0 29 -4 27 -12z m1200 -33 c-3 -3 -9 2 -12 12 -6 14 -5 15 5 6 7 -7 10 -15 7
-18z m-77 -32 c13 -16 12 -17 -3 -4 -17 13 -22 21 -14 21 2 0 10 -8 17 -17z
m-501 -44 c0 -6 -4 -7 -10 -4 -5 3 -10 1 -10 -6 0 -7 -2 -10 -5 -7 -9 8 6 38
16 32 5 -3 9 -10 9 -15z m2145 11 c3 -5 -1 -10 -10 -10 -9 0 -13 5 -10 10 3 6
8 10 10 10 2 0 7 -4 10 -10z m-2432 -25 c-3 -9 -8 -14 -10 -11 -3 3 -2 9 2 15
9 16 15 13 8 -4z m44 -7 c-3 -8 -6 -5 -6 6 -1 11 2 17 5 13 3 -3 4 -12 1 -19z
m-177 0 c0 -4 0 -11 0 -15 0 -4 -5 -8 -13 -9 -7 -1 -13 6 -13 16 0 9 6 17 13
17 7 0 13 -4 13 -9z m107 -2 c0 -8 -6 -12 -15 -9 -11 5 -11 7 0 14 7 5 13 9
14 9 0 0 1 -6 1 -14z m158 4 c3 -6 -1 -7 -9 -4 -18 7 -21 14 -7 14 6 0 13 -4
16 -10z m-308 -22 c-3 -8 -6 -5 -6 6 -1 11 2 17 5 13 3 -3 4 -12 1 -19z m2166
7 c1 -5 -6 -11 -15 -13 -11 -2 -18 3 -18 13 0 17 30 18 33 0z m-1077 -13 c6
-4 14 -33 18 -65 5 -51 17 -95 41 -149 5 -13 3 -18 -8 -18 -16 0 -26 -13 -102
-128 -30 -46 -60 -101 -66 -123 -14 -44 -45 -54 -66 -19 -17 26 -69 53 -118
59 -29 5 -41 11 -43 26 -5 26 -30 45 -59 45 -14 0 -23 6 -23 15 0 18 -25 31
-75 40 -60 10 -75 15 -75 26 0 5 7 9 15 9 28 0 74 30 89 58 l15 27 1 -27 c0
-16 4 -28 9 -28 12 0 100 50 106 61 11 17 46 10 43 -8 -4 -27 58 -56 86 -40
19 10 44 14 118 16 22 1 29 7 37 38 10 34 8 40 -16 65 -34 36 -51 35 -64 -2
-6 -16 -15 -30 -20 -30 -4 0 -6 7 -3 15 4 8 1 15 -6 15 -9 0 -8 5 3 18 9 10
14 27 11 39 -7 27 12 38 32 18 9 -9 19 -14 23 -13 37 19 71 45 71 56 0 14 10
15 26 4z m170 -73 c9 -16 -18 -30 -33 -17 -7 6 -13 14 -13 19 0 13 38 11 46
-2z m574 -184 c-7 -8 -17 -15 -23 -15 -6 0 -2 7 9 15 25 19 30 19 14 0z
m-1370 -55 c0 -10 -4 -22 -10 -25 -5 -3 -10 3 -10 15 l0 21 -39 -23 c-39 -22
-67 -19 -41 5 10 9 11 9 6 0 -4 -7 -3 -13 3 -13 5 0 11 4 13 8 4 12 61 40 71
35 4 -2 7 -13 7 -23z m33 -1 c-5 -19 -7 -19 -15 -5 -10 18 -2 39 12 31 4 -3 6
-15 3 -26z m-162 -16 c-8 -15 -10 -15 -11 -2 0 17 10 32 18 25 2 -3 -1 -13 -7
-23z m-41 -8 c0 -5 5 -3 10 5 6 9 10 10 10 3 0 -19 -20 -26 -36 -12 -13 10
-17 10 -25 -2 -7 -11 -9 -11 -9 3 0 13 7 17 25 16 14 -1 25 -7 25 -13z m-166
-10 c-4 -8 -1 -15 5 -15 6 0 11 6 11 13 0 9 13 14 35 14 20 0 35 -5 35 -12 0
-15 -30 -16 -31 -1 0 6 -5 0 -11 -14 -6 -14 -12 -20 -15 -14 -2 7 -13 10 -23
7 -20 -5 -28 15 -13 30 10 11 13 8 7 -8z m521 -5 c3 -5 1 -10 -5 -10 -6 0 -9
-4 -5 -9 3 -6 -7 -9 -21 -8 -15 1 -30 9 -32 16 -3 10 0 12 11 8 9 -3 19 -2 22
3 8 13 22 13 30 0z m-625 -11 c0 -5 -4 -7 -10 -4 -5 3 -10 0 -10 -7 0 -8 -10
-14 -22 -15 -11 -1 -25 -8 -29 -15 -7 -10 -9 -10 -9 2 0 25 17 43 34 37 8 -3
18 -2 21 3 8 13 25 13 25 -1z m40 -10 c0 -6 -4 -7 -10 -4 -5 3 -10 11 -10 16
0 6 5 7 10 4 6 -3 10 -11 10 -16z m417 -16 c-3 -10 -5 -4 -5 12 0 17 2 24 5
18 2 -7 2 -21 0 -30z m-587 20 c0 -5 -4 -15 -10 -23 -11 -18 -25 -7 -17 15 6
15 27 21 27 8z m38 -22 c-16 -26 -23 -27 -25 -2 -1 11 6 21 15 24 24 5 25 2
10 -22z m522 7 c0 -18 -2 -20 -9 -8 -6 8 -7 18 -5 22 9 14 14 9 14 -14z m90
12 c0 -5 -3 -10 -7 -11 -5 0 -16 -2 -25 -4 -20 -4 -24 11 -5 18 21 9 37 7 37
-3z m-877 -22 c12 -7 26 -19 30 -26 10 -16 28 -6 21 12 -4 10 6 15 35 18 23 2
41 1 41 -3 0 -14 -31 -31 -46 -25 -14 5 -15 1 -10 -30 12 -61 -30 -82 -94 -49
-16 8 -42 16 -57 17 -15 1 -31 3 -35 5 -12 6 35 53 53 53 10 0 21 9 24 20 7
24 9 24 38 8z m673 -7 c0 -11 -4 -17 -8 -15 -4 3 -8 12 -8 20 0 8 4 14 8 14 4
0 8 -9 8 -19z m54 9 c0 -12 -28 -25 -36 -17 -9 9 6 27 22 27 8 0 14 -5 14 -10z
m325 -10 c-3 -5 -10 -10 -16 -10 -5 0 -9 5 -9 10 0 6 7 10 16 10 8 0 12 -4 9
-10z m-465 -16 c0 -6 -7 -11 -15 -11 -8 0 -15 5 -15 11 0 6 -4 5 -9 -3 -5 -7
-14 -10 -21 -6 -9 6 -9 9 1 16 19 11 59 7 59 -7z m-106 -1 c-5 -5 -12 -12 -16
-18 -4 -6 -8 -2 -8 8 0 9 7 17 17 17 9 0 12 -3 7 -7z m23 -15 c-3 -8 -6 -5 -6
6 -1 11 2 17 5 13 3 -3 4 -12 1 -19z m513 7 c0 -8 -6 -15 -13 -15 -8 0 -14 7
-14 15 0 8 6 15 14 15 7 0 13 -7 13 -15z m-702 -18 c0 -15 -7 -23 -19 -24 -13
-1 -16 3 -12 15 5 13 21 31 29 32 1 0 2 -10 2 -23z m92 9 c0 -14 -29 -31 -38
-22 -2 3 -2 12 1 21 8 19 37 20 37 1z m34 -1 c3 -9 0 -15 -8 -15 -7 0 -13 7
-13 15 0 8 4 15 8 15 4 0 9 -7 13 -15z m494 2 c-21 -21 -45 -26 -57 -14 -9 9
-14 8 -21 -3 -8 -13 -10 -12 -10 3 0 10 8 17 20 17 11 0 20 -5 20 -11 0 -6 7
-3 16 5 8 9 22 16 30 16 13 0 13 -2 2 -13z m-145 -17 c3 -11 1 -20 -4 -20 -5
0 -9 9 -9 20 0 11 2 20 4 20 2 0 6 -9 9 -20z m-1007 -15 c-7 -20 15 -34 75
-45 29 -6 58 -15 63 -20 6 -6 19 -10 30 -10 19 -1 18 -3 -7 -24 -25 -20 -26
-24 -13 -35 23 -20 4 -45 -51 -69 -74 -31 -116 -36 -152 -18 -17 9 -34 15 -38
14 -5 -2 -9 16 -10 39 -2 36 1 42 23 47 26 7 33 25 9 27 -30 3 -34 4 -45 15
-8 8 -5 18 10 36 11 15 20 33 20 41 0 18 23 24 63 19 18 -3 26 -9 23 -17z
m451 10 c7 -20 5 -22 -39 -30 -34 -6 -38 -5 -38 13 0 19 13 26 58 31 7 0 15
-6 19 -14z m580 -7 c-3 -8 -6 -5 -6 6 -1 11 2 17 5 13 3 -3 4 -12 1 -19z
m1024 6 c10 -13 10 -17 -2 -25 -13 -8 -39 13 -39 33 0 14 27 9 41 -8z m-1071
-9 c0 -8 -9 -15 -20 -15 -11 0 -20 7 -20 15 0 8 9 15 20 15 11 0 20 -7 20 -15z
m-92 -9 c-7 -8 -15 -12 -17 -10 -2 2 -10 -1 -18 -7 -10 -9 -17 -8 -29 2 -13
10 -17 10 -25 -2 -7 -12 -9 -11 -9 3 0 16 11 20 83 25 22 2 25 0 15 -11z
m-158 -18 c0 -18 -2 -20 -9 -8 -6 8 -7 18 -5 22 9 14 14 9 14 -14z m1698 -3
c-3 -3 -9 2 -12 12 -6 14 -5 15 5 6 7 -7 10 -15 7 -18z m-1671 -7 c-3 -8 -6
-5 -6 6 -1 11 2 17 5 13 3 -3 4 -12 1 -19z m-154 -28 c-7 -8 -22 24 -16 34 4
5 10 1 13 -10 4 -10 6 -21 3 -24z m97 25 c0 -8 -9 -15 -20 -15 -11 0 -20 7
-20 15 0 8 9 15 20 15 11 0 20 -7 20 -15z m237 9 c-3 -3 -12 -4 -19 -1 -8 3
-5 6 6 6 11 1 17 -2 13 -5z m-422 -19 c17 2 36 -4 44 -12 12 -13 10 -14 -19
-8 -25 6 -31 4 -25 -6 6 -9 3 -11 -9 -6 -10 4 -19 1 -22 -8 -11 -27 -22 -16
-19 18 4 43 4 44 13 31 4 -6 21 -10 37 -9z m-66 -11 c2 -2 1 -10 -2 -17 -7
-17 -60 -27 -81 -15 -22 12 -20 28 3 28 11 0 23 5 26 10 6 9 42 5 54 -6z m251
-28 c0 -2 -7 -6 -15 -10 -8 -3 -15 -1 -15 4 0 6 7 10 15 10 8 0 15 -2 15 -4z
m-44 -26 c0 -12 -7 -20 -16 -20 -9 0 -16 8 -16 20 0 12 7 20 16 20 9 0 16 -8
16 -20z m955 -12 c13 -25 3 -36 -19 -22 -23 15 -30 56 -7 48 8 -4 20 -15 26
-26z m-1048 5 c-7 -2 -13 -11 -13 -18 0 -10 -12 -13 -40 -11 -22 2 -40 -1 -40
-6 0 -6 -7 -8 -14 -5 -8 3 -29 -1 -45 -9 -17 -8 -48 -14 -68 -12 -30 2 -38 7
-38 23 0 21 13 23 193 29 23 0 42 4 42 9 0 4 8 7 18 6 10 0 12 -3 5 -6z m1474
-60 c-3 -10 -5 -4 -5 12 0 17 2 24 5 18 2 -7 2 -21 0 -30z m547 -38 c3 -8 -2
-19 -10 -26 -12 -10 -18 -9 -31 4 -21 20 -10 47 16 40 11 -3 22 -11 25 -18z
m-1074 -35 c0 -12 -7 -20 -17 -20 -10 0 -35 -3 -55 -6 -34 -6 -38 -4 -38 14 0
21 3 22 93 30 11 1 17 -5 17 -18z m-150 -27 c0 -14 -2 -15 -9 -5 -7 11 -9 11
-14 -2 -3 -8 -15 -14 -26 -13 -29 2 -26 13 7 25 38 15 42 14 42 -5z m-83 -25
c-3 -8 -6 -5 -6 6 -1 11 2 17 5 13 3 -3 4 -12 1 -19z m-47 -9 c0 -6 -4 -7 -10
-4 -5 3 -10 11 -10 16 0 6 5 7 10 4 6 -3 10 -11 10 -16z m-500 -13 c0 -14 -4
-27 -9 -30 -4 -3 -8 8 -7 24 1 36 16 41 16 6z m386 -1 c1 -8 -1 -15 -6 -15
-10 0 -20 26 -13 34 8 8 16 -1 19 -19z m71 3 c-3 -8 -6 -5 -6 6 -1 11 2 17 5
13 3 -3 4 -12 1 -19z m-898 3 c12 -8 12 -12 2 -25 -19 -22 -26 -20 -26 9 0 27
3 29 24 16z m398 -11 c-1 -22 -13 -26 -21 -7 -3 8 -8 7 -16 -6 -8 -12 -18 -15
-37 -11 -18 5 -24 3 -19 -5 4 -6 2 -11 -3 -11 -6 0 -11 6 -11 14 0 19 32 30
42 14 5 -9 8 -9 8 -1 0 6 12 16 28 21 15 6 28 11 29 11 1 1 1 -8 0 -19z m319
-36 c-3 -8 -11 -14 -18 -13 -10 0 -10 2 0 6 12 5 17 33 6 33 -4 0 -12 -6 -18
-14 -15 -19 -76 -32 -76 -16 0 7 9 14 20 17 11 3 20 10 20 15 0 5 8 7 18 4 9
-3 24 -1 32 4 17 11 26 -10 16 -36z m68 29 c4 -10 -1 -12 -21 -7 -18 5 -24 4
-19 -5 4 -6 2 -11 -3 -11 -12 0 -15 23 -5 33 10 10 43 3 48 -10z m-511 -19
c-4 -12 -8 -13 -14 -3 -9 15 -2 32 11 24 5 -3 6 -13 3 -21z m-34 -11 c0 -13
-2 -14 -6 -4 -4 9 -7 10 -13 2 -9 -15 -58 -19 -62 -6 -2 5 11 13 27 16 49 11
55 10 54 -8z m243 -18 c4 -16 1 -25 -8 -25 -7 0 -11 8 -9 18 2 9 4 20 4 25 2
15 9 6 13 -18z m88 16 c0 -5 -14 -14 -31 -20 -39 -14 -36 -14 -43 5 -3 8 -2
12 4 9 5 -3 18 -1 27 4 22 13 43 14 43 2z m-660 -11 c0 -5 -10 -10 -22 -10
-19 0 -20 2 -8 10 19 13 30 13 30 0z m230 -4 c0 -3 -4 -8 -10 -11 -5 -3 -10
-1 -10 4 0 6 5 11 10 11 6 0 10 -2 10 -4z m303 -16 c-3 -11 -9 -20 -14 -20 -5
0 -9 9 -9 20 0 11 6 20 14 20 9 0 12 -7 9 -20z m-42 1 c-7 -5 -11 -13 -7 -19
4 -6 -1 -10 -11 -10 -10 0 -26 -3 -35 -7 -11 -4 -18 -3 -18 4 0 6 5 11 11 11
5 0 7 5 3 12 -5 8 0 9 14 6 12 -4 25 -2 28 3 3 5 11 9 17 9 8 0 7 -3 -2 -9z
m-128 -31 c6 -23 -3 -26 -21 -8 -9 9 -12 9 -12 -3 0 -14 -81 -38 -186 -56 -40
-6 -55 21 -21 39 23 12 25 13 127 23 36 4 72 11 80 16 22 13 27 11 33 -11z"/>
<path d="M1870 2820 c0 -5 5 -10 10 -10 6 0 10 5 10 10 0 6 -4 10 -10 10 -5 0
-10 -4 -10 -10z"/>
<path d="M1940 2530 c0 -5 5 -10 10 -10 6 0 10 5 10 10 0 6 -4 10 -10 10 -5 0
-10 -4 -10 -10z"/>
<path d="M1825 2260 c3 -5 8 -10 11 -10 2 0 4 5 4 10 0 6 -5 10 -11 10 -5 0
-7 -4 -4 -10z"/>
<path d="M1285 1690 c3 -5 8 -10 11 -10 2 0 4 5 4 10 0 6 -5 10 -11 10 -5 0
-7 -4 -4 -10z"/>
<path d="M1275 1460 c3 -5 8 -10 11 -10 2 0 4 5 4 10 0 6 -5 10 -11 10 -5 0
-7 -4 -4 -10z"/>
<path d="M2392 1015 c-35 -18 -37 -23 -17 -45 25 -28 33 -25 41 15 8 43 6 45
-24 30z"/>
<path d="M2424 963 c-3 -16 -9 -37 -14 -48 -5 -11 -12 -31 -15 -44 -7 -22 -5
-23 27 -16 44 10 44 11 22 37 -17 19 -17 21 -1 15 18 -7 23 16 11 61 -9 30
-22 28 -30 -5z"/>
<path d="M2395 805 c-21 -20 -32 -48 -23 -57 2 -2 -5 -14 -15 -28 -9 -13 -17
-33 -17 -44 0 -10 23 18 50 64 28 46 50 85 50 87 0 11 -24 -1 -45 -22z"/>
<path d="M2320 725 c-6 -16 -9 -38 -7 -49 2 -15 7 -8 16 23 14 49 7 69 -9 26z"/>
<path d="M2109 708 c17 -18 24 -19 43 -10 23 11 23 11 -4 11 -16 1 -28 6 -28
11 0 6 -7 10 -15 10 -13 0 -12 -4 4 -22z"/>
<path d="M2202 688 c-7 -7 -12 -18 -12 -25 0 -16 45 -46 64 -41 12 3 12 8 -1
41 -16 38 -30 46 -51 25z"/>
<path d="M78 2532 l-78 -15 0 -64 0 -64 23 18 c64 50 160 143 147 142 -8 -1
-50 -8 -92 -17z"/>
<path d="M195 2530 c-3 -5 -1 -10 4 -10 6 0 11 5 11 10 0 6 -2 10 -4 10 -3 0
-8 -4 -11 -10z"/>
<path d="M0 2262 c0 -20 53 -66 135 -117 29 -18 29 -18 -5 16 -19 19 -56 54
-82 78 -42 38 -48 41 -48 23z"/>
</g>
</svg>
